# xmcd CD database file
#
# Track frame offsets:
#	150
#	20200
#	43274
#	54475
#	71813
#	90341
#	110858
#	127913
#	148082
#
# Disc length: 2393 seconds
#
# Revision: 0
# Processed by: cddbd v1.5.2PL0 Copyright (c) Steve Scherf et al.
# Submitted via: CDex 1.70beta3
#
DISCID=86095709
DTITLE=Gary Burton - Throb (Atrantic SD 1531)
DYEAR=1969
DGENRE=Jazz
TTITLE0=Henniger Flats
TTITLE1=Turn of the Century
TTITLE2=Chickens
TTITLE3=Arise, Her Eyes
TTITLE4=Prime Time
TTITLE5=Throb
TTITLE6=Doin the Pig
TTITLE7=Triple Portrait
TTITLE8=Some Echoes
EXTD=YEAR: 1969
EXTT0=
EXTT1=
EXTT2=
EXTT3=
EXTT4=
EXTT5=
EXTT6=
EXTT7=
EXTT8=
PLAYORDER=
